<?xml version="1.0" encoding="UTF-8" standalone="no"?>
<svg
   xmlns:dc="http://purl.org/dc/elements/1.1/"
   xmlns:cc="http://creativecommons.org/ns#"
   xmlns:rdf="http://www.w3.org/1999/02/22-rdf-syntax-ns#"
   xmlns:svg="http://www.w3.org/2000/svg"
   xmlns="http://www.w3.org/2000/svg"
   xmlns:sodipodi="http://sodipodi.sourceforge.net/DTD/sodipodi-0.dtd"
   xmlns:inkscape="http://www.inkscape.org/namespaces/inkscape"
   width="150"
   height="150"
   version="1.1"
   viewBox="0 0 39.687506 39.687524"
   id="svg38"
   sodipodi:docname="face3.svg"
   inkscape:version="0.92.2 5c3e80d, 2017-08-06">
  <metadata
     id="metadata44">
    <rdf:RDF>
      <cc:Work
         rdf:about="">
        <dc:format>image/svg+xml</dc:format>
        <dc:type
           rdf:resource="http://purl.org/dc/dcmitype/StillImage" />
        <dc:title></dc:title>
      </cc:Work>
    </rdf:RDF>
  </metadata>
  <defs
     id="defs42">
    <inkscape:perspective
       sodipodi:type="inkscape:persp3d"
       inkscape:vp_x="10.252194 : 24.259277 : 1"
       inkscape:vp_y="24.569873 : 1087.1525 : 0"
       inkscape:vp_z="76.85998 : 27.919232 : 1"
       inkscape:persp3d-origin="43.393568 : 18.89819 : 1"
       id="perspective99" />
  </defs>
  <sodipodi:namedview
     pagecolor="#ffffff"
     bordercolor="#666666"
     borderopacity="1"
     objecttolerance="10"
     gridtolerance="10"
     guidetolerance="10"
     inkscape:pageopacity="0"
     inkscape:pageshadow="2"
     inkscape:window-width="1280"
     inkscape:window-height="730"
     id="namedview40"
     showgrid="false"
     inkscape:zoom="3.5655173"
     inkscape:cx="74.550289"
     inkscape:cy="85.287715"
     inkscape:window-x="0"
     inkscape:window-y="0"
     inkscape:window-maximized="0"
     inkscape:current-layer="svg38" />
  <circle
     style="opacity:1;fill:#ffe6d5;fill-opacity:1;stroke:none;stroke-width:2.03752017;stroke-linecap:round;stroke-linejoin:round;stroke-miterlimit:4;stroke-dasharray:none;stroke-opacity:1"
     id="path65"
     cx="19.724771"
     cy="19.509832"
     r="19.182299" />
  <path
     sodipodi:nodetypes="sssss"
     inkscape:connector-curvature="0"
     id="path139"
     d="m 20.0041,32.2216 c -2.035382,-3.558266 -4.107502,-2.009472 -5.172363,-11.347053 -0.381607,-3.346248 -5.3872915,1.219081 -6.0577995,7.265261 -0.501122,4.518776 1.2468255,8.56678 4.0334475,9.063294 2.78662,0.496512 9.290765,-1.32068 7.196715,-4.981502 z"
     style="opacity:1;fill:#ffb380;fill-opacity:1;stroke:none;stroke-width:0.70248121;stroke-linecap:round;stroke-linejoin:round;stroke-miterlimit:4;stroke-dasharray:none;stroke-opacity:1" />
  <path
     style="opacity:1;fill:#ffb380;fill-opacity:1;stroke:none;stroke-width:1.07171285;stroke-linecap:round;stroke-linejoin:round;stroke-miterlimit:4;stroke-dasharray:none;stroke-opacity:1"
     d="m 21.922839,15.307945 c -1.045412,3.411238 -3.866013,5.003043 -6.608497,5.003043 -2.742484,0 -3.322916,-1.703814 -3.322916,-5.003043 0,-3.299228 3.828676,-7.9899329 6.57116,-7.9899335 2.742484,-1e-7 4.326961,4.8355105 3.360253,7.9899335 z"
     id="path73"
     inkscape:connector-curvature="0"
     sodipodi:nodetypes="sssss" />
  <path
     style="opacity:1;fill:#552200;fill-opacity:1;stroke:none;stroke-width:0.85400027;stroke-linecap:round;stroke-linejoin:round;stroke-miterlimit:4;stroke-dasharray:none;stroke-opacity:1"
     d="m 22.006994,12.006306 c -3.260617,3.509567 -8.011741,-2.5601148 -6.789866,9.164463 0.388694,3.72974 -6.789865,-4.10307 -6.789865,-9.164463 0,-5.0613938 3.039926,-9.1644638 6.789865,-9.1644638 3.749939,0 10.144462,5.5537417 6.789866,9.1644638 z"
     id="path70"
     inkscape:connector-curvature="0"
     sodipodi:nodetypes="sssss" />
  <path
     sodipodi:nodetypes="sssss"
     inkscape:connector-curvature="0"
     id="path81"
     d="m 14.378953,24.10751 c 4.691814,1.641021 5.865101,5.789449 15.562174,-0.09703 5.621667,-3.41256 -2.175151,5.933134 -7.387653,7.133039 C 17.340971,32.343425 12.110861,31.010491 10.871697,28.166328 9.6325314,25.322165 9.5519069,22.419192 14.378953,24.10751 Z"
     style="opacity:1;fill:#550000;fill-opacity:1;stroke:none;stroke-width:0.79170913;stroke-linecap:round;stroke-linejoin:round;stroke-miterlimit:4;stroke-dasharray:none;stroke-opacity:1" />
  <g
     sodipodi:type="inkscape:box3d"
     id="g101"
     style="opacity:1;fill:#803300;fill-opacity:1;stroke:none;stroke-width:3.22771645;stroke-linecap:round;stroke-linejoin:round;stroke-miterlimit:4;stroke-dasharray:none;stroke-opacity:1"
     inkscape:perspectiveID="#perspective99"
     inkscape:corner0="1.6217039 : 0.0061449908 : 0 : 1"
     inkscape:corner7="0.7252503 : -0.0084172287 : 0.25 : 1">
    <path
       sodipodi:type="inkscape:box3dside"
       id="path103"
       style="fill:#803300;fill-rule:evenodd;stroke:none;stroke-width:4.4694767;stroke-linejoin:round"
       inkscape:box3dsidetype="6"
       d="m 22.950947,14.924962 -0.136473,6.038573 4.705004,-0.800504 0.124593,-5.512877 z"
       points="22.814474,20.963535 27.519478,20.163031 27.644071,14.650154 22.950947,14.924962 " />
    <path
       sodipodi:type="inkscape:box3dside"
       id="path111"
       style="fill:#803300;fill-rule:evenodd;stroke:none;stroke-width:4.4694767;stroke-linejoin:round"
       inkscape:box3dsidetype="13"
       d="m 22.814474,20.963535 6.527457,2.876181 6.014183,-1.527835 -7.836636,-2.14885 z"
       points="29.341931,23.839716 35.356114,22.311881 27.519478,20.163031 22.814474,20.963535 " />
    <path
       sodipodi:type="inkscape:box3dside"
       id="path113"
       style="fill:#803300;fill-rule:evenodd;stroke:none;stroke-width:4.4694767;stroke-linejoin:round"
       inkscape:box3dsidetype="11"
       d="m 27.644071,14.650154 7.893181,-0.353131 -0.181138,8.014858 -7.836636,-2.14885 z"
       points="35.537252,14.297023 35.356114,22.311881 27.519478,20.163031 27.644071,14.650154 " />
    <path
       sodipodi:type="inkscape:box3dside"
       id="path105"
       style="fill:#803300;fill-rule:evenodd;stroke:none;stroke-width:4.4694767;stroke-linejoin:round"
       inkscape:box3dsidetype="5"
       d="m 22.950947,14.924962 6.59837,-0.261509 5.987935,-0.36643 -7.893181,0.353131 z"
       points="29.549317,14.663453 35.537252,14.297023 27.644071,14.650154 22.950947,14.924962 " />
    <path
       sodipodi:type="inkscape:box3dside"
       id="path109"
       style="fill:#803300;fill-rule:evenodd;stroke:none;stroke-width:4.4694767;stroke-linejoin:round"
       inkscape:box3dsidetype="14"
       d="m 29.549317,14.663453 -0.207386,9.176263 6.014183,-1.527835 0.181138,-8.014858 z"
       points="29.341931,23.839716 35.356114,22.311881 35.537252,14.297023 29.549317,14.663453 " />
    <path
       sodipodi:type="inkscape:box3dside"
       id="path107"
       style="fill:#803300;fill-rule:evenodd;stroke:none;stroke-width:4.4694767;stroke-linejoin:round"
       inkscape:box3dsidetype="3"
       d="m 22.950947,14.924962 6.59837,-0.261509 -0.207386,9.176263 -6.527457,-2.876181 z"
       points="29.549317,14.663453 29.341931,23.839716 22.814474,20.963535 22.950947,14.924962 " />
  </g>
  <path
     style="opacity:1;fill:#f4d7d7;fill-opacity:1;stroke:none;stroke-width:1.10857058;stroke-linecap:round;stroke-linejoin:round;stroke-miterlimit:4;stroke-dasharray:none;stroke-opacity:1"
     d="m 33.656247,18.951872 c 0,1.147204 -0.456531,2.814804 -1.334325,2.814804 -0.877793,0 -1.937197,-2.432785 -1.937197,-3.603177 0,-1.170392 1.870964,-2.536555 2.748757,-2.536555 0.877794,0 0.522765,2.154536 0.522765,3.324928 z"
     id="path115"
     inkscape:connector-curvature="0"
     sodipodi:nodetypes="sssss" />
  <rect
     style="opacity:1;fill:#803300;fill-opacity:1;stroke:none;stroke-width:0.85400027;stroke-linecap:round;stroke-linejoin:round;stroke-miterlimit:4;stroke-dasharray:none;stroke-opacity:1"
     id="rect118"
     width="2.5722294"
     height="2.6436801"
     x="27.329941"
     y="12.500478" />
</svg>
